<?xml version="1.0" encoding="UTF-8"?>
<svg xmlns="http://www.w3.org/2000/svg" version="1.1" viewBox="0 0 391 161" width="391px" height="161px" style="shape-rendering:geometricPrecision; text-rendering:geometricPrecision; image-rendering:optimizeQuality; fill-rule:evenodd; clip-rule:evenodd" xmlns:xlink="http://www.w3.org/1999/xlink">
<g><path style="opacity:1" fill="#43302e" d="M 155.5,23.5 C 152.813,23.3359 150.146,23.5026 147.5,24C 146.186,24.985 145.186,26.1516 144.5,27.5C 144.286,25.8561 144.62,24.3561 145.5,23C 149.027,22.1925 152.36,22.3592 155.5,23.5 Z"/></g>
<g><path style="opacity:1" fill="#43302e" d="M 106.5,32.5 C 102.5,32.5 98.5,32.5 94.5,32.5C 95.512,30.124 97.3454,29.124 100,29.5C 102.735,29.431 104.902,30.431 106.5,32.5 Z"/></g>
<g><path style="opacity:1" fill="#ef7d9d" d="M 231.5,20.5 C 232.177,30.0105 237.177,35.8438 246.5,38C 238.806,39.5282 233.806,44.0282 231.5,51.5C 229.056,43.5551 223.723,39.0551 215.5,38C 225.568,36.4344 230.901,30.6011 231.5,20.5 Z"/></g>
<g><path style="opacity:1" fill="#43302e" d="M 94.5,32.5 C 98.5,32.5 102.5,32.5 106.5,32.5C 111.057,33.6585 111.391,35.3252 107.5,37.5C 106.83,39.2914 106.163,40.9581 105.5,42.5C 105.768,39.8806 105.435,37.3806 104.5,35C 102.2,34.3417 99.8668,33.8417 97.5,33.5C 95.6455,33.3402 94.3121,34.0069 93.5,35.5C 89.351,36.0803 85.6843,35.4136 82.5,33.5C 86.6002,33.7633 90.6002,33.4299 94.5,32.5 Z"/></g>
<g><path style="opacity:1" fill="#43302e" d="M 82.5,33.5 C 85.6843,35.4136 89.351,36.0803 93.5,35.5C 93.7947,37.7354 93.4614,39.7354 92.5,41.5C 92.5,39.8333 92.5,38.1667 92.5,36.5C 86.5,36.5 80.5,36.5 74.5,36.5C 74.7845,38.4147 74.4511,40.0813 73.5,41.5C 73.5,39.8333 73.5,38.1667 73.5,36.5C 69.5384,35.6245 65.5384,34.9578 61.5,34.5C 61.5,33.5 61.5,32.5 61.5,31.5C 68.3388,33.2834 75.3388,33.95 82.5,33.5 Z"/></g>
<g><path style="opacity:1" fill="#43302e" d="M 305.5,34.5 C 291.006,35.3313 276.339,35.8313 261.5,36C 276.496,36.4999 291.496,36.6666 306.5,36.5C 306.784,38.4147 306.451,40.0813 305.5,41.5C 305.5,40.1667 305.5,38.8333 305.5,37.5C 290.485,37.8327 275.485,37.4993 260.5,36.5C 260.291,35.914 259.957,35.414 259.5,35C 274.83,34.5001 290.163,34.3334 305.5,34.5 Z"/></g>
<g><path style="opacity:1" fill="#43302e" d="M 61.5,34.5 C 65.5384,34.9578 69.5384,35.6245 73.5,36.5C 73.5,38.1667 73.5,39.8333 73.5,41.5C 73.5,42.8333 73.5,44.1667 73.5,45.5C 72.8423,44.6016 72.1757,43.6016 71.5,42.5C 70.2798,41.2889 69.1131,41.2889 68,42.5C 66.7633,46.0601 66.2633,49.7267 66.5,53.5C 67.8734,53.6567 69.2068,53.49 70.5,53C 70.9448,50.9801 71.6115,49.8135 72.5,49.5C 72.7947,51.7354 72.4614,53.7354 71.5,55.5C 69.8098,55.2417 67.8098,55.2417 65.5,55.5C 65.3343,51.1539 65.501,46.8206 66,42.5C 66.2735,40.6711 67.1068,39.1711 68.5,38C 66.3225,36.7978 63.9892,36.2978 61.5,36.5C 61.5,35.8333 61.5,35.1667 61.5,34.5 Z"/></g>
<g><path style="opacity:1" fill="#43302e" d="M 104.5,54.5 C 104.745,60.084 104.078,65.4174 102.5,70.5C 102.527,64.9494 103.194,59.6161 104.5,54.5 Z"/></g>
<g><path style="opacity:1" fill="#43302e" d="M 235.5,63.5 C 232.774,63.2639 230.441,64.0972 228.5,66C 230.2,71.344 229.533,76.344 226.5,81C 224.414,81.3153 222.414,81.8153 220.5,82.5C 220.833,79.8333 221.167,77.1667 221.5,74.5C 227.922,77.9176 229.922,76.0842 227.5,69C 225.613,68.8374 224.113,69.6707 223,71.5C 222.601,71.2716 222.435,70.9382 222.5,70.5C 222.5,69.5 222.5,68.5 222.5,67.5C 216.463,67.8293 210.463,67.4959 204.5,66.5C 204.291,65.914 203.957,65.414 203.5,65C 209.833,64.6667 216.167,64.3333 222.5,64C 224.909,61.9727 227.742,60.806 231,60.5C 232.666,61.3479 234.166,62.3479 235.5,63.5 Z"/></g>
<g><path style="opacity:1" fill="#43302e" d="M 221.5,74.5 C 221.232,72.901 221.566,71.5676 222.5,70.5C 222.435,70.9382 222.601,71.2716 223,71.5C 224.113,69.6707 225.613,68.8374 227.5,69C 229.922,76.0842 227.922,77.9176 221.5,74.5 Z"/></g>
<g><path style="opacity:1" fill="#43302e" d="M 183.5,76.5 C 180.833,76.5 178.167,76.5 175.5,76.5C 178.068,72.6729 180.735,72.6729 183.5,76.5 Z"/></g>
<g><path style="opacity:1" fill="#43302e" d="M 266.5,114.5 C 262.973,115.406 259.639,115.406 256.5,114.5C 255.482,115.193 254.482,115.859 253.5,116.5C 254.844,101.092 256.844,85.759 259.5,70.5C 262.246,72.4731 265.246,73.9731 268.5,75C 279.495,75.4998 290.495,75.6665 301.5,75.5C 302.506,64.1169 303.84,52.7836 305.5,41.5C 306.451,40.0813 306.784,38.4147 306.5,36.5C 291.496,36.6666 276.496,36.4999 261.5,36C 276.339,35.8313 291.006,35.3313 305.5,34.5C 307.797,32.7059 309.963,30.7059 312,28.5C 315.971,30.9718 319.805,33.6385 323.5,36.5C 322.086,37.624 320.586,38.624 319,39.5C 317.333,53.1667 315.667,66.8333 314,80.5C 313.5,81.6667 312.667,82.5 311.5,83C 307.855,83.9949 304.188,84.8283 300.5,85.5C 300.5,83.1667 300.5,80.8333 300.5,78.5C 290.833,78.5 281.167,78.5 271.5,78.5C 269.98,90.5168 268.313,102.517 266.5,114.5 Z"/></g>
<g><path style="opacity:1" fill="#43302e" d="M 175.5,76.5 C 178.167,76.5 180.833,76.5 183.5,76.5C 183.5,76.8333 183.5,77.1667 183.5,77.5C 179.807,78.0599 176.14,78.7265 172.5,79.5C 173.167,78.1667 174.167,77.1667 175.5,76.5 Z"/></g>
<g><path style="opacity:1" fill="#43302e" d="M 151.5,75.5 C 151.5,76.8333 151.5,78.1667 151.5,79.5C 158.5,79.5 165.5,79.5 172.5,79.5C 165.352,80.4916 158.019,80.825 150.5,80.5C 150.216,78.5853 150.549,76.9187 151.5,75.5 Z"/></g>
<g><path style="opacity:1" fill="#43302e" d="M 109.5,82.5 C 118.5,82.5 127.5,82.5 136.5,82.5C 136.737,83.791 136.404,84.791 135.5,85.5C 127.048,83.8445 118.381,82.8445 109.5,82.5 Z"/></g>
<g><path style="opacity:1" fill="#43302e" d="M 188.5,82.5 C 176.167,83.1667 163.833,83.8333 151.5,84.5C 150.957,84.44 150.624,84.1067 150.5,83.5C 163.149,82.5009 175.816,82.1676 188.5,82.5 Z"/></g>
<g><path style="opacity:1" fill="#43302e" d="M 155.5,23.5 C 157.564,23.687 159.564,24.187 161.5,25C 160.421,25.956 159.255,26.7894 158,27.5C 157.083,34.4986 156.25,41.4986 155.5,48.5C 160.844,48.666 166.177,48.4994 171.5,48C 173.683,45.6496 176.016,43.483 178.5,41.5C 181.5,44.1667 184.5,46.8333 187.5,49.5C 176.849,50.3324 166.182,50.8324 155.5,51C 153.794,59.072 152.46,67.2387 151.5,75.5C 150.549,76.9187 150.216,78.5853 150.5,80.5C 158.019,80.825 165.352,80.4916 172.5,79.5C 176.14,78.7265 179.807,78.0599 183.5,77.5C 185.549,78.8818 187.215,80.5484 188.5,82.5C 175.816,82.1676 163.149,82.5009 150.5,83.5C 150.624,84.1067 150.957,84.44 151.5,84.5C 157.77,111.941 173.77,131.441 199.5,143C 202.117,143.822 204.784,144.322 207.5,144.5C 211.833,145.167 216.167,145.833 220.5,146.5C 173.636,153.796 149.803,133.796 149,86.5C 142.964,109.856 129.464,127.356 108.5,139C 105.258,140.639 101.924,141.639 98.5,142C 118.197,128.137 130.53,109.303 135.5,85.5C 136.404,84.791 136.737,83.791 136.5,82.5C 127.5,82.5 118.5,82.5 109.5,82.5C 109.389,81.8826 109.056,81.3826 108.5,81C 118.161,80.5002 127.828,80.3335 137.5,80.5C 138.554,70.4581 139.887,60.4581 141.5,50.5C 132.664,50.9686 123.997,50.4686 115.5,49C 124.494,48.5002 133.494,48.3336 142.5,48.5C 142.592,41.436 143.258,34.436 144.5,27.5C 145.186,26.1516 146.186,24.985 147.5,24C 150.146,23.5026 152.813,23.3359 155.5,23.5 Z"/></g>
<g><path style="opacity:1" fill="#43302e" d="M 105.5,42.5 C 105.167,46.5 104.833,50.5 104.5,54.5C 103.194,59.6161 102.527,64.9494 102.5,70.5C 101.422,77.4521 100.422,84.4521 99.5,91.5C 94.8894,90.1965 90.5561,90.1965 86.5,91.5C 79.9102,91.189 73.4102,91.5223 67,92.5C 63.8967,113.848 55.0633,132.348 40.5,148C 38.9452,149.289 37.2785,149.956 35.5,150C 44.3036,137.94 49.8036,124.44 52,109.5C 55.6036,85.2136 58.7703,60.8803 61.5,36.5C 63.9892,36.2978 66.3225,36.7978 68.5,38C 67.1068,39.1711 66.2735,40.6711 66,42.5C 65.501,46.8206 65.3343,51.1539 65.5,55.5C 67.8098,55.2417 69.8098,55.2417 71.5,55.5C 71.5,57.5 71.5,59.5 71.5,61.5C 77.8333,61.5 84.1667,61.5 90.5,61.5C 91.297,54.8478 91.9636,48.1811 92.5,41.5C 93.4614,39.7354 93.7947,37.7354 93.5,35.5C 94.3121,34.0069 95.6455,33.3402 97.5,33.5C 99.8668,33.8417 102.2,34.3417 104.5,35C 105.435,37.3806 105.768,39.8806 105.5,42.5 Z"/></g>
<g><path style="opacity:1" fill="#43302e" d="M 71.5,64.5 C 77.9262,63.88 83.9262,64.5467 89.5,66.5C 88.8333,74.1667 88.1667,81.8333 87.5,89.5C 80.8333,89.5 74.1667,89.5 67.5,89.5C 68.5503,80.9916 69.8836,72.6582 71.5,64.5 Z"/></g>
<g><path style="opacity:1" fill="#43302e" d="M 71.5,64.5 C 77.6446,63.5098 83.9779,63.1765 90.5,63.5C 90.7373,64.791 90.404,65.791 89.5,66.5C 83.9262,64.5467 77.9262,63.88 71.5,64.5 Z"/></g>
<g><path style="opacity:1" fill="#43302e" d="M 73.5,45.5 C 73.7678,47.099 73.4345,48.4324 72.5,49.5C 71.6115,49.8135 70.9448,50.9801 70.5,53C 69.2068,53.49 67.8734,53.6567 66.5,53.5C 66.2633,49.7267 66.7633,46.0601 68,42.5C 69.1131,41.2889 70.2798,41.2889 71.5,42.5C 72.1757,43.6016 72.8423,44.6016 73.5,45.5 Z"/></g>
<g><path style="opacity:1" fill="#43302e" d="M 92.5,41.5 C 91.9636,48.1811 91.297,54.8478 90.5,61.5C 84.1667,61.5 77.8333,61.5 71.5,61.5C 71.5,59.5 71.5,57.5 71.5,55.5C 72.4614,53.7354 72.7947,51.7354 72.5,49.5C 73.4345,48.4324 73.7678,47.099 73.5,45.5C 73.5,44.1667 73.5,42.8333 73.5,41.5C 74.4511,40.0813 74.7845,38.4147 74.5,36.5C 80.5,36.5 86.5,36.5 92.5,36.5C 92.5,38.1667 92.5,39.8333 92.5,41.5 Z"/></g>
<g><path style="opacity:1" fill="#43302e" d="M 235.5,63.5 C 240.564,65.3881 240.397,67.3881 235,69.5C 233.289,85.0186 231.456,100.519 229.5,116C 229.833,116.833 230.167,117.667 230.5,118.5C 236.25,115.544 241.75,112.21 247,108.5C 247.667,109.167 247.667,109.833 247,110.5C 237.833,119.667 228.667,128.833 219.5,138C 218.668,138.688 218.002,138.521 217.5,137.5C 215.043,134.086 212.709,130.586 210.5,127C 212.09,125.954 213.59,124.787 215,123.5C 217.089,109.861 218.923,96.1944 220.5,82.5C 222.414,81.8153 224.414,81.3153 226.5,81C 229.533,76.344 230.2,71.344 228.5,66C 230.441,64.0972 232.774,63.2639 235.5,63.5 Z"/></g>
<g><path style="opacity:1" fill="#43302e" d="M 99.5,91.5 C 98.5722,99.3161 97.5722,106.983 96.5,114.5C 94.8764,110.937 93.543,111.27 92.5,115.5C 91.448,115.351 90.448,115.517 89.5,116C 90.0657,118.361 89.0657,120.194 86.5,121.5C 85.4822,120.807 84.4822,120.141 83.5,119.5C 84.7635,110.198 85.7635,100.865 86.5,91.5C 90.5561,90.1965 94.8894,90.1965 99.5,91.5 Z"/></g>
<g><path style="opacity:1" fill="#43302e" d="M 335.5,103.5 C 337.167,104.167 338.833,104.833 340.5,105.5C 332.587,104.873 326.42,107.873 322,114.5C 324.416,108.609 328.916,104.943 335.5,103.5 Z"/></g>
<g><path style="opacity:1" fill="#43302e" d="M 335.5,103.5 C 345.168,103.005 350.835,107.505 352.5,117C 352.366,120.241 351.366,123.075 349.5,125.5C 349.167,125.5 348.833,125.5 348.5,125.5C 352.023,118.49 351.023,112.324 345.5,107C 343.975,105.991 342.308,105.491 340.5,105.5C 338.833,104.833 337.167,104.167 335.5,103.5 Z"/></g>
<g><path style="opacity:1" fill="#43302e" d="M 89.5,94.5 C 92.1791,101.408 91.6791,108.408 88,115.5C 87.6907,108.41 88.1907,101.41 89.5,94.5 Z"/></g>
<g><path style="opacity:1" fill="#43302e" d="M 266.5,114.5 C 264.799,123.601 268.465,129.101 277.5,131C 295.55,136.351 313.883,137.685 332.5,135C 338.99,133.596 344.323,130.429 348.5,125.5C 348.833,125.5 349.167,125.5 349.5,125.5C 347.798,130.041 344.798,133.541 340.5,136C 335.466,138.789 330.132,140.789 324.5,142C 305.029,144.545 285.695,143.878 266.5,140C 254.667,136.159 250.334,128.326 253.5,116.5C 254.482,115.859 255.482,115.193 256.5,114.5C 259.639,115.406 262.973,115.406 266.5,114.5 Z"/></g>
<g><path style="opacity:1" fill="#43302e" d="M 96.5,114.5 C 96.4612,122.162 94.9612,129.495 92,136.5C 87.7062,139.654 82.8728,141.32 77.5,141.5C 78.4255,135.672 76.0922,132.005 70.5,130.5C 73.8333,129.833 77.1667,129.167 80.5,128.5C 81.1174,128.389 81.6174,128.056 82,127.5C 82.567,124.832 83.067,122.166 83.5,119.5C 84.4822,120.141 85.4822,120.807 86.5,121.5C 89.0657,120.194 90.0657,118.361 89.5,116C 90.448,115.517 91.448,115.351 92.5,115.5C 93.543,111.27 94.8764,110.937 96.5,114.5 Z"/></g>
<g><path style="opacity:1" fill="#43302e" d="M 80.5,128.5 C 77.1667,129.167 73.8333,129.833 70.5,130.5C 69.2438,130.539 68.2438,130.039 67.5,129C 71.8206,128.501 76.1539,128.334 80.5,128.5 Z"/></g>
<g><path style="opacity:1" fill="#43302e" d="M 220.5,146.5 C 216.167,145.833 211.833,145.167 207.5,144.5C 216.241,145.437 224.575,144.104 232.5,140.5C 233.696,140.846 233.696,141.346 232.5,142C 228.67,143.998 224.67,145.498 220.5,146.5 Z"/></g>
</svg>
